<?xml version="1.0" encoding="UTF-8" standalone="no"?>
<svg xmlns:dc="http://purl.org/dc/elements/1.1/" xmlns:cc="http://creativecommons.org/ns#" xmlns:rdf="http://www.w3.org/1999/02/22-rdf-syntax-ns#" xmlns:svg="http://www.w3.org/2000/svg" xmlns="http://www.w3.org/2000/svg" xmlns:sodipodi="http://sodipodi.sourceforge.net/DTD/sodipodi-0.dtd" xmlns:inkscape="http://www.inkscape.org/namespaces/inkscape" viewBox="" id="fullcircle-service" version="1.1" inkscape:version="0.91 r13725" sodipodi:docname="fullcircle-today-logo-white.svg" width="888.17175292969" height="129.34967041016">
  <defs id="defs" />
  <sodipodi:namedview pagecolor="#ffffff" bordercolor="#666666" borderopacity="1" objecttolerance="10" gridtolerance="10" guidetolerance="10" inkscape:pageopacity="0" inkscape:pageshadow="2" inkscape:window-width="1983" inkscape:window-height="1128" id="namedview16" showgrid="false" fit-margin-top="0" fit-margin-left="0" fit-margin-right="0" fit-margin-bottom="0" inkscape:zoom="1" inkscape:cx="362.7621768766" inkscape:cy="151.23700622279" inkscape:window-x="65" inkscape:window-y="24" inkscape:window-maximized="1" inkscape:current-layer="fullcircle-service" showborder="false" />
  <style id="styles" type="text/css"><![CDATA[
            /* prompt-200 - latin */
            @font-face {
                font-family: 'Prompt';
                font-style: normal;
                font-weight: 200;
                src: url('../fonts/prompt-v2-latin-200.eot'); /* IE9 Compat Modes */
                src: local('Prompt ExtraLight'), local('Prompt-ExtraLight'),
                    url('../fonts/prompt-v2-latin-200.eot?#iefix') format('embedded-opentype'), /* IE6-IE8 */
                    url('../fonts/prompt-v2-latin-200.woff2') format('woff2'), /* Super Modern Browsers */
                    url('../fonts/prompt-v2-latin-200.woff') format('woff'), /* Modern Browsers */
                    url('../fonts/prompt-v2-latin-200.ttf') format('truetype'), /* Safari, Android, iOS */
                    url('../fonts/prompt-v2-latin-200.svg#Prompt') format('svg'); /* Legacy iOS */
            }

            /* prompt-500 - latin */
            @font-face {
                font-family: 'Prompt';
                font-style: normal;
                font-weight: 500;
                src: url('../fonts/prompt-v2-latin-500.eot'); /* IE9 Compat Modes */
                src: local('Prompt Medium'), local('Prompt-Medium'),
                    url('../fonts/prompt-v2-latin-500.eot?#iefix') format('embedded-opentype'), /* IE6-IE8 */
                    url('../fonts/prompt-v2-latin-500.woff2') format('woff2'), /* Super Modern Browsers */
                    url('../fonts/prompt-v2-latin-500.woff') format('woff'), /* Modern Browsers */
                    url('../fonts/prompt-v2-latin-500.ttf') format('truetype'), /* Safari, Android, iOS */
                    url('../fonts/prompt-v2-latin-500.svg#Prompt') format('svg'); /* Legacy iOS */
            }

            .logoname {
                font-family: 'Prompt';
                font-weight: 500;
            }

            .logotagline {
                font-family: 'Prompt';
                font-weight: 200;
            }
    ]]></style>
  <metadata id="metadata">
    <rdf:RDF>
      <cc:Work>
        <dc:format>image/svg+xml</dc:format>
        <dc:type rdf:resource="http://purl.org/dc/dcmitype/StillImage"/>
        <dc:title>fullcircle today℠</dc:title>
        <cc:license rdf:resource="http://creativecommons.org/licenses/by-nc-nd/4.0/"/>
        <dc:subject>fullcircle today℠ logo</dc:subject>
        <dc:description>Depiction of fullcircle today℠ service logo with white background</dc:description>
        <dc:creator rdf:href="https://www.linkedin.com/in/arnoldschrijver/"/>
      </cc:Work>
      <cc:License rdf:about="http://creativecommons.org/licenses/by-nc-nd/4.0/">
        <cc:permits rdf:resource="http://creativecommons.org/ns#Reproduction" />
        <cc:permits rdf:resource="http://creativecommons.org/ns#Distribution" />
        <cc:requires rdf:resource="http://creativecommons.org/ns#Notice" />
        <cc:requires rdf:resource="http://creativecommons.org/ns#Attribution" />
        <cc:prohibits rdf:resource="http://creativecommons.org/ns#DerivativeWorks" />
        <cc:prohibits rdf:resource="http://creativecommons.org/ns#CommercialUse" />
      </cc:License>
    </rdf:RDF>
  </metadata>
  <g id="fullcircle-today-logo-white" transform="translate(307.58587646484,-402.93133544922)" inkscape:export-xdpi="90" inkscape:export-ydpi="90">
    <rect id="background" y="402.93133544922" x="-307.58587646484" height="129.34967041016" width="888.17175292969" style="fill:white;fill-opacity:1" />
    <text id="brand" class="logoname" xml:space="preserve" style="font-weight:500;font-size:100px;font-family:'Prompt Medium', Prompt;fill:#060;fill-opacity:1"><tspan style="fill:#060;fill-opacity:1" y="498.13184" x="-288" id="brandname">fullcircle</tspan></text>
    <text class="logotagline" id="service" xml:space="preserve" style="font-weight:200;font-size:100px;font-family:'Prompt ExtraLight', Prompt;fill:#ff900f;fill-opacity:0.9411764706" x="544" y="-49"><tspan style="fill:#ff900f;fill-opacity:0.9411764706" y="497" x="248" id="servicename">today</tspan></text>
    <g style="font-weight:200;font-size:100px;font-family:'Prompt ExtraLight', Prompt;fill:#f90;fill-opacity:1" id="servicemark" transform="translate(263.94875,24.3360824585)">
      <path d="M 260.92125,428.61358795166 Q 259.12125,428.61358795166 257.02125,428.13358795166 254.98125,427.59358795166 253.84125,426.81358795166 L 253.84125,423.93358795166 Q 255.34125,424.77358795166 257.14125,425.31358795166 259.00125,425.79358795166 260.74125,425.79358795166 262.84125,425.79358795166 263.80125,425.31358795166 264.76125,424.77358795166 264.76125,423.69358795166 264.76125,422.31358795166 263.80125,421.65358795166 262.84125,420.99358795166 259.90125,420.15358795166 256.66125,419.31358795166 255.22125,418.05358795166 253.78125,416.79358795166 253.78125,414.45358795166 253.78125,411.99358795166 255.70125,410.73358795166 257.62125,409.41358795166 260.98125,409.41358795166 262.60125,409.41358795166 264.22125,409.77358795166 265.90125,410.07358795166 266.92125,410.67358795166 L 266.92125,413.49358795166 Q 264.58125,412.23358795166 261.28125,412.23358795166 259.18125,412.23358795166 258.10125,412.71358795166 257.08125,413.19358795166 257.08125,414.45358795166 257.08125,415.71358795166 257.98125,416.25358795166 258.94125,416.79358795166 262.06125,417.75358795166 265.42125,418.83358795166 266.74125,420.09358795166 268.06125,421.35358795166 268.06125,423.63358795166 268.06125,425.91358795166 266.20125,427.29358795166 264.40125,428.61358795166 260.92125,428.61358795166 Z M 269.86125,410.07358795166 273.34125,410.07358795166 280.12125,423.21358795166 286.84125,410.07358795166 290.32125,410.07358795166 290.32125,428.19358795166 286.84125,428.19358795166 286.84125,416.37358795166 281.02125,428.19358795166 279.22125,428.19358795166 273.34125,416.37358795166 273.34125,428.19358795166 269.86125,428.19358795166 269.86125,410.07358795166 Z" style="font-size:60px" id="path4181" inkscape:connector-curvature="0" />
    </g>
    <g transform="matrix(0.34221106231571,0,0,0.35184453274426,212.73243551245,367.49703216019)" id="icon">
      <circle id="soul" cx="-86.852745056152" cy="287.24542236328" r="20" style="fill:#aecf00;fill-opacity:1;stroke:none;stroke-width:20;stroke-opacity:1" />
      <circle id="earth" cx="-86.852745056152" cy="287.24542236328" r="80" style="fill:none;stroke:#060;stroke-width:20;stroke-opacity:1" />
      <path d="M 13.71875,145.509765625 -5.681640625,150.369140625 3.501953125,187.046875 C -20.441331702233,165.43231508232 -52.132321402188,152.24609375 -86.853515625,152.24609375 -161.29351047713,152.24609375 -221.853515625,212.80609889787 -221.853515625,287.24609375 -221.853515625,361.68608860213 -161.29351047713,422.24609375 -86.853515625,422.24609375 -18.677207658543,422.24609375 37.847623980915,371.44525864219 46.87890625,305.7109375 A 20,20 0 0 0 57,288.349609375 20,20 0 0 0 37,268.349609375 20,20 0 0 0 17,288.349609375 20,20 0 0 0 26.703125,305.46484375 C 18.000322478855,360.39982165821 -29.425674067889,402.24609375 -86.853515625,402.24609375 -150.48470817744,402.24609375 -201.853515625,350.87728630244 -201.853515625,287.24609375 -201.853515625,223.61490119756 -150.48470817744,172.24609375 -86.853515625,172.24609375 -43.132727786975,172.24609375 -5.2014036535196,196.49715239907 14.255859375,232.314453125 L 14.765625,232.02734375 14.76953125,232.041015625 34.171875,227.18359375 13.71875,145.509765625 Z" id="renewal" style="fill:#f90" inkscape:connector-curvature="0" />
    </g>
  </g>
</svg>
